<svg width="56" height="57" viewBox="0 0 56 57" fill="none" xmlns="http://www.w3.org/2000/svg">
<g clip-path="url(#clip0_9564_103)">
<path d="M56 51.1051L56 5.89484C56 2.93148 53.6667 0.5 50.8229 0.5L5.17709 0.499999C2.33334 0.499998 7.46997e-06 2.93148 7.27567e-06 5.89484L4.31136e-06 51.1051C4.11706e-06 54.0685 2.33334 56.5 5.17709 56.5L50.8229 56.5C53.6667 56.424 56 54.0685 56 51.1051ZM16.8438 13.7971C16.8438 11.8976 18.3021 10.3779 20.125 10.3779C21.9479 10.3779 23.4063 11.8976 23.4063 13.7971C23.4063 15.6967 21.9479 17.2164 20.125 17.2164C18.3021 17.2164 16.8438 15.6967 16.8438 13.7971ZM32.6667 13.7971C32.6667 11.8976 34.125 10.3779 35.9479 10.3779C37.7708 10.3779 39.2292 11.8976 39.2292 13.7971C39.2292 15.6967 37.7708 17.2164 35.9479 17.2164C34.125 17.2164 32.6667 15.6967 32.6667 13.7971ZM23.4792 46.0142C22.0208 45.5583 20.7083 45.0265 19.4688 44.2666C18.2292 43.5068 17.0625 42.595 16.0417 41.5312C15.0208 40.4674 14.1458 39.2517 13.4167 37.96C12.6875 36.6682 12.1042 35.2246 11.7396 33.7049C11.3021 32.1852 11.1563 30.5895 11.1563 28.9939L11.1563 21.4715L15.5313 21.4715L15.5313 28.7659C15.5313 30.6655 15.8958 32.4891 16.5521 34.0848C17.2083 35.6805 18.1563 37.1241 19.3229 38.2639C20.4896 39.4037 21.8021 40.3914 23.4063 40.9993C24.9375 41.6832 26.6146 41.9871 28.2917 41.9871C30.1146 41.9871 31.7917 41.6072 33.3229 40.9233C34.8542 40.2395 36.1667 39.2517 37.1875 38.1119C38.2813 36.8962 39.0833 35.5285 39.6667 33.9328C40.25 32.3372 40.5417 30.6655 40.5417 28.8419L40.5417 21.4715L44.9167 21.4715L44.9167 28.9179C44.9167 30.5896 44.6979 32.1852 44.3333 33.7809C43.9688 35.3005 43.3854 36.7442 42.6563 38.036C41.9271 39.3277 41.0521 40.5434 40.0313 41.6072C39.0104 42.671 37.8438 43.5828 36.6042 44.3426C35.3646 45.1024 33.9792 45.7103 32.5208 46.0902C31.0625 46.4701 29.5313 46.6981 28 46.6981C26.3958 46.6221 24.9375 46.3942 23.4792 46.0142Z" fill="black"/>
<rect x="10.0804" y="18.9805" width="36.4" height="30.8" fill="black"/>
<path d="M10.6401 41.7462V39.1643C10.6401 38.7146 10.9403 38.3202 11.3738 38.2004L45.2138 28.8499C45.8507 28.6739 46.4801 29.153 46.4801 29.8138V32.3957C46.4801 32.8454 46.1799 33.2398 45.7465 33.3596L11.9065 42.7101C11.2696 42.8861 10.6401 42.407 10.6401 41.7462Z" fill="white"/>
</g>
<defs>
<clipPath id="clip0_9564_103">
<rect width="56" height="56" fill="white" transform="translate(0 0.5)"/>
</clipPath>
</defs>
</svg>
