<svg width="56" height="57" viewBox="0 0 56 57" fill="none" xmlns="http://www.w3.org/2000/svg">
<g clip-path="url(#clip0_9564_51)">
<path d="M7.74208e-06 5.89484L8.25357e-07 51.1052C3.71992e-07 54.0685 2.33333 56.5 5.17708 56.5L50.8229 56.5C53.6667 56.5 56 54.0685 56 51.1052L56 5.89485C56 2.93148 53.6667 0.500006 50.8229 0.500006L5.17709 0.500001C2.33334 0.575985 8.19544e-06 2.93148 7.74208e-06 5.89484ZM39.1563 13.5229C39.1563 15.4224 37.6979 16.9421 35.875 16.9421C34.0521 16.9421 32.5938 15.4224 32.5938 13.5229C32.5938 11.6233 34.0521 10.1036 35.875 10.1036C37.6979 10.1036 39.1563 11.6233 39.1563 13.5229ZM23.3333 13.5229C23.3333 15.4224 21.875 16.9421 20.0521 16.9421C18.2292 16.9421 16.7708 15.4224 16.7708 13.5229C16.7708 11.6233 18.2292 10.1036 20.0521 10.1036C21.875 10.1036 23.3333 11.6233 23.3333 13.5229ZM32.5208 26.1058C33.9792 26.5617 35.2917 27.0935 36.5313 27.8534C37.7708 28.6132 38.9375 29.525 39.9583 30.5888C40.9792 31.6526 41.8542 32.8683 42.5833 34.16C43.3125 35.4517 43.8958 36.8954 44.2604 38.4151C44.6979 39.9348 44.8437 41.5305 44.8437 43.1261L44.8437 45.0485L40.4688 45.0485L40.4688 43.3541C40.4688 41.4545 40.1042 39.6309 39.4479 38.0352C38.7917 36.4395 37.8438 34.9959 36.6771 33.8561C35.5104 32.7163 34.1979 31.7286 32.5938 31.1207C31.0625 30.4368 29.3854 30.1329 27.7083 30.1329C25.8854 30.1329 24.2083 30.5128 22.6771 31.1967C21.1458 31.8805 19.8333 32.8683 18.8125 34.0081C17.7188 35.2238 16.9167 36.5915 16.3333 38.1872C15.75 39.7828 15.4583 41.4545 15.4583 43.2781L15.4583 45.0485L11.0833 45.0485L11.0833 43.2021C11.0833 41.5304 11.3021 39.9348 11.6667 38.3391C12.0313 36.8195 12.6146 35.3758 13.3438 34.084C14.0729 32.7923 14.9479 31.5766 15.9688 30.5128C16.9896 29.449 18.1563 28.5372 19.3958 27.7774C20.6354 27.0176 22.0208 26.4097 23.4792 26.0298C24.9375 25.6498 26.4688 25.4219 28 25.4219C29.6042 25.4979 31.0625 25.7258 32.5208 26.1058Z" fill="#EC4F40"/>
</g>
<defs>
<clipPath id="clip0_9564_51">
<rect width="56" height="56" fill="white" transform="translate(0 0.5)"/>
</clipPath>
</defs>
</svg>
