<svg width="56" height="57" viewBox="0 0 56 57" fill="none" xmlns="http://www.w3.org/2000/svg">
<g clip-path="url(#clip0_9564_36)">
<path d="M56 51.1052L56 5.89485C56 2.93148 53.6667 0.5 50.8229 0.5L5.17708 0.499998C2.33333 0.499998 -1.06283e-07 2.93148 -2.35816e-07 5.89484L-2.21202e-06 51.1052C-2.34155e-06 54.0685 2.33333 56.5 5.17708 56.5L50.8229 56.5C53.6667 56.424 56 54.0685 56 51.1052ZM16.8437 13.7972C16.8437 11.8976 18.3021 10.3779 20.125 10.3779C21.9479 10.3779 23.4063 11.8976 23.4063 13.7972C23.4063 15.6967 21.9479 17.2164 20.125 17.2164C18.3021 17.2164 16.8437 15.6967 16.8437 13.7972ZM32.6667 13.7972C32.6667 11.8976 34.125 10.3779 35.9479 10.3779C37.7708 10.3779 39.2292 11.8976 39.2292 13.7972C39.2292 15.6967 37.7708 17.2164 35.9479 17.2164C34.125 17.2164 32.6667 15.6967 32.6667 13.7972ZM23.4792 46.0143C22.0208 45.5583 20.7083 45.0265 19.4687 44.2666C18.2292 43.5068 17.0625 42.595 16.0417 41.5312C15.0208 40.4674 14.1458 39.2517 13.4167 37.96C12.6875 36.6683 12.1042 35.2246 11.7396 33.7049C11.3021 32.1852 11.1563 30.5896 11.1563 28.9939L11.1563 21.4715L15.5312 21.4715L15.5312 28.7659C15.5312 30.6655 15.8958 32.4891 16.5521 34.0848C17.2083 35.6805 18.1562 37.1242 19.3229 38.2639C20.4896 39.4037 21.8021 40.3915 23.4063 40.9993C24.9375 41.6832 26.6146 41.9871 28.2917 41.9871C30.1146 41.9871 31.7917 41.6072 33.3229 40.9233C34.8542 40.2395 36.1667 39.2517 37.1875 38.1119C38.2812 36.8962 39.0833 35.5285 39.6667 33.9328C40.25 32.3372 40.5417 30.6655 40.5417 28.8419L40.5417 21.4715L44.9167 21.4715L44.9167 28.9179C44.9167 30.5896 44.6979 32.1852 44.3333 33.7809C43.9687 35.3005 43.3854 36.7442 42.6562 38.036C41.9271 39.3277 41.0521 40.5434 40.0312 41.6072C39.0104 42.671 37.8438 43.5828 36.6042 44.3426C35.3646 45.1024 33.9792 45.7103 32.5208 46.0902C31.0625 46.4702 29.5312 46.6981 28 46.6981C26.3958 46.6221 24.9375 46.3942 23.4792 46.0143Z" fill="#00BBDD"/>
</g>
<defs>
<clipPath id="clip0_9564_36">
<rect width="56" height="56" fill="white" transform="translate(0 0.5)"/>
</clipPath>
</defs>
</svg>
